<svg xmlns="http://www.w3.org/2000/svg" viewBox="0 0 160.08 35.65"><defs><style>.cls-1{fill:#ee3364;}.cls-2{fill:#39187e;}.cls-3{fill:#00bec5;}</style></defs><title>dots</title><g id="Layer_2" data-name="Layer 2"><g id="Layer_1-2" data-name="Layer 1"><path class="cls-1" d="M18.4,188.26a16.9,16.9,0,0,1-5.29-12.54,17.25,17.25,0,0,1,5.29-12.65,17.52,17.52,0,0,1,12.88-5.29,16.88,16.88,0,0,1,12.54,5.29A17.49,17.49,0,0,1,49,175.72a17.65,17.65,0,0,1-17.71,17.71A17.73,17.73,0,0,1,18.4,188.26Z" transform="translate(-13.11 -157.78)"/><path class="cls-2" d="M80.5,188.26a16.9,16.9,0,0,1-5.29-12.54,17.25,17.25,0,0,1,5.29-12.65,17.51,17.51,0,0,1,12.88-5.29,16.87,16.87,0,0,1,12.53,5.29,17.46,17.46,0,0,1,5.18,12.65,17.67,17.67,0,0,1-17.71,17.71A17.71,17.71,0,0,1,80.5,188.26Z" transform="translate(-13.11 -157.78)"/><path class="cls-3" d="M142.6,188.26a16.9,16.9,0,0,1-5.29-12.54,17.25,17.25,0,0,1,5.29-12.65,17.51,17.51,0,0,1,12.88-5.29A16.87,16.87,0,0,1,168,163.07a17.46,17.46,0,0,1,5.18,12.65,17.67,17.67,0,0,1-17.71,17.71A17.71,17.71,0,0,1,142.6,188.26Z" transform="translate(-13.11 -157.78)"/></g></g></svg>