<svg xmlns="http://www.w3.org/2000/svg" viewBox="0 0 1309.15 147.66"><defs><style>.cls-1{fill:#1f1f1f;}.cls-2{fill:#39187e;}</style></defs><title>logo-dev</title><g id="Layer_2" data-name="Layer 2"><g id="Layer_1-2" data-name="Layer 1"><path class="cls-1" d="M104.65,87.63q11.5,12.2,11.5,32.66V181a12.13,12.13,0,0,1-3.45,9,12.37,12.37,0,0,1-17.25-.11A12.24,12.24,0,0,1,92,181v-57.5q0-11.73-6.79-19T67.39,97.29q-11.26,0-18.51,7.36t-7.25,18.86V181a12.34,12.34,0,0,1-3.34,9,11.44,11.44,0,0,1-8.62,3.45,11.66,11.66,0,0,1-8.74-3.56A12.24,12.24,0,0,1,17.48,181V87.86A12.21,12.21,0,0,1,20.93,79a11.63,11.63,0,0,1,8.74-3.57A11,11,0,0,1,38.06,79a12.41,12.41,0,0,1,3.34,8.85,43.41,43.41,0,0,1,14.49-9.2,49,49,0,0,1,17.94-3.22Q93.15,75.44,104.65,87.63Z" transform="translate(-17.48 -45.77)"/><path class="cls-1" d="M227.7,82.23A48.9,48.9,0,0,1,246.44,101a53.54,53.54,0,0,1,6.79,26.91V129q0,6.21-3.68,9.78t-10.12,3.56H167.21q2.53,13.8,12.19,21.74T204,172a42.51,42.51,0,0,0,26.45-8.74,11.57,11.57,0,0,1,6.21-2.3,9.85,9.85,0,0,1,10.12,10.12,10.52,10.52,0,0,1-1.38,5.52,16.22,16.22,0,0,1-4.6,4.6,61,61,0,0,1-37.49,12.19,62.66,62.66,0,0,1-31-7.7,57.14,57.14,0,0,1-29.67-51.18,59.59,59.59,0,0,1,7.7-29.9,57.32,57.32,0,0,1,50.49-29.21A53.51,53.51,0,0,1,227.7,82.23ZM179.17,103.5a36,36,0,0,0-11.5,20h61.41q-.47-12.42-8.4-20T200.1,95.91A30.85,30.85,0,0,0,179.17,103.5Z" transform="translate(-17.48 -45.77)"/><path class="cls-1" d="M446.32,78.89a11.13,11.13,0,0,1,3.56,8.28,15.38,15.38,0,0,1-1.15,5.52l-40.94,93.38a13.1,13.1,0,0,1-4.48,5.41,11.43,11.43,0,0,1-6.56,2,11.05,11.05,0,0,1-6.33-2,13.42,13.42,0,0,1-4.48-5.18l-29-70.38L327.75,186.3a13.85,13.85,0,0,1-4.71,5.29,11.49,11.49,0,0,1-6.33,1.84,10.88,10.88,0,0,1-6.44-2,13.42,13.42,0,0,1-4.37-5.41L265,92.69a15.38,15.38,0,0,1-1.15-5.52A11.78,11.78,0,0,1,282.1,77.4a11.69,11.69,0,0,1,4.25,5.17l31.28,71.3,27.6-69.69a16.33,16.33,0,0,1,4.83-6.44,10.69,10.69,0,0,1,6.67-2.3,11,11,0,0,1,6.9,2.3,14.57,14.57,0,0,1,4.6,6.44l27.83,69.69,31.28-71.3a11.69,11.69,0,0,1,4.25-5.17,11,11,0,0,1,6.33-2A11.69,11.69,0,0,1,446.32,78.89Z" transform="translate(-17.48 -45.77)"/><path class="cls-1" d="M572.24,79a11.39,11.39,0,0,1,3.45,8.16,17,17,0,0,1-1.38,6.21l-45.08,92.69a12.77,12.77,0,0,1-4.6,5.41,11.59,11.59,0,0,1-6.44,2,11.43,11.43,0,0,1-6.56-2,14.86,14.86,0,0,1-4.71-5.41L462.07,93.38a13.87,13.87,0,0,1-1.61-6.21A11.39,11.39,0,0,1,463.91,79a11.11,11.11,0,0,1,8.28-3.57q7.59,0,11,7.13l35,73.6,34.73-73.6q3.68-7.12,11-7.13A11.11,11.11,0,0,1,572.24,79Z" transform="translate(-17.48 -45.77)"/><path class="cls-1" d="M672.06,82.23A49,49,0,0,1,690.81,101a53.63,53.63,0,0,1,6.78,26.91V129q0,6.21-3.68,9.78t-10.12,3.56H611.57q2.53,13.8,12.19,21.74T648.37,172a42.51,42.51,0,0,0,26.45-8.74A11.57,11.57,0,0,1,681,161a9.83,9.83,0,0,1,10.12,10.12,10.52,10.52,0,0,1-1.38,5.52,16.22,16.22,0,0,1-4.6,4.6,61,61,0,0,1-37.49,12.19,62.66,62.66,0,0,1-31-7.7A57.19,57.19,0,0,1,587,134.55a59.5,59.5,0,0,1,7.71-29.9,57.29,57.29,0,0,1,50.48-29.21A53.48,53.48,0,0,1,672.06,82.23ZM623.53,103.5a36,36,0,0,0-11.5,20h61.41q-.47-12.42-8.39-20t-20.59-7.59A30.85,30.85,0,0,0,623.53,103.5Z" transform="translate(-17.48 -45.77)"/><path class="cls-1" d="M812.36,87.63q11.49,12.2,11.5,32.66V181a12.13,12.13,0,0,1-3.45,9,12.37,12.37,0,0,1-17.25-.11,12.24,12.24,0,0,1-3.45-8.86v-57.5q0-11.73-6.79-19T775.1,97.29q-11.28,0-18.52,7.36t-7.24,18.86V181a12.38,12.38,0,0,1-3.34,9,11.46,11.46,0,0,1-8.62,3.45,11.66,11.66,0,0,1-8.74-3.56,12.24,12.24,0,0,1-3.45-8.86V87.86A12.21,12.21,0,0,1,728.64,79a11.63,11.63,0,0,1,8.74-3.57A11,11,0,0,1,745.77,79a12.41,12.41,0,0,1,3.34,8.85,43.41,43.41,0,0,1,14.49-9.2,49,49,0,0,1,17.94-3.22Q800.86,75.44,812.36,87.63Z" transform="translate(-17.48 -45.77)"/><path class="cls-1" d="M924,174a9.06,9.06,0,0,1,2.88,7q0,7.59-7.13,10.12-5.52,2.3-15.18,2.3-20.25,0-30.94-10.12T863,154.1V98.9h-9a10.65,10.65,0,0,1-7.71-3,9.81,9.81,0,0,1-3.1-7.36,10.18,10.18,0,0,1,3.1-7.47A10.47,10.47,0,0,1,854,78h9V58.19a12,12,0,0,1,3.56-8.86,12.37,12.37,0,0,1,17.37,0,12.26,12.26,0,0,1,3.45,8.86V78h24.15a10.69,10.69,0,0,1,7.7,3,10.11,10.11,0,0,1,3.11,7.59,9.82,9.82,0,0,1-3.11,7.36,10.65,10.65,0,0,1-7.7,3H887.34V152q0,10.35,5.29,14.95t16.79,4.6l6.9-.23A10.9,10.9,0,0,1,924,174Z" transform="translate(-17.48 -45.77)"/><path class="cls-1" d="M971.52,187.11A44.14,44.14,0,0,1,954,169.4a53.17,53.17,0,0,1-6.21-25.88V87.86A12.21,12.21,0,0,1,951.28,79a11.93,11.93,0,0,1,17,0,12.21,12.21,0,0,1,3.45,8.85v57.5q0,11.28,7.13,18.52t18.4,7.24q10.8,0,17.82-7.24t7-18.52V87.86a12.21,12.21,0,0,1,3.45-8.85,11.63,11.63,0,0,1,8.74-3.57,11.37,11.37,0,0,1,8.51,3.57,12.21,12.21,0,0,1,3.45,8.85v55.66a53.17,53.17,0,0,1-6.21,25.88,44.38,44.38,0,0,1-17.37,17.71,50.69,50.69,0,0,1-25.41,6.32A51.78,51.78,0,0,1,971.52,187.11Z" transform="translate(-17.48 -45.77)"/><path class="cls-1" d="M1143.79,79.93a10.56,10.56,0,0,1,3.22,7.93,10.85,10.85,0,0,1-3.22,8.17,13.5,13.5,0,0,1-8.51,3.56q-13.8.47-22.43,9t-8.62,22.08V181a12.38,12.38,0,0,1-3.34,9,11.46,11.46,0,0,1-8.62,3.45,11.66,11.66,0,0,1-8.74-3.56,12.24,12.24,0,0,1-3.45-8.86V87.86a12.21,12.21,0,0,1,3.45-8.85,11.63,11.63,0,0,1,8.74-3.57,11,11,0,0,1,8.39,3.57,12.45,12.45,0,0,1,3.34,8.85v3.45a39.61,39.61,0,0,1,13.91-10.69,41.09,41.09,0,0,1,17.6-3.8A11.45,11.45,0,0,1,1143.79,79.93Z" transform="translate(-17.48 -45.77)"/><path class="cls-1" d="M1242,82.23A48.9,48.9,0,0,1,1260.74,101a53.64,53.64,0,0,1,6.79,26.91V129q0,6.21-3.68,9.78t-10.12,3.56h-72.22q2.52,13.8,12.19,21.74t24.61,7.93a42.53,42.53,0,0,0,26.45-8.74A11.57,11.57,0,0,1,1251,161a9.85,9.85,0,0,1,10.12,10.12,10.52,10.52,0,0,1-1.38,5.52,16.36,16.36,0,0,1-4.6,4.6,61,61,0,0,1-37.49,12.19,62.66,62.66,0,0,1-31-7.7,57.14,57.14,0,0,1-29.67-51.18,59.49,59.49,0,0,1,7.7-29.9,57.32,57.32,0,0,1,50.49-29.21A53.54,53.54,0,0,1,1242,82.23Zm-48.53,21.27a36,36,0,0,0-11.5,20h61.41q-.47-12.42-8.4-20t-20.58-7.59A30.83,30.83,0,0,0,1193.47,103.5Z" transform="translate(-17.48 -45.77)"/><path class="cls-2" d="M1296,188.26a16.92,16.92,0,0,1-5.29-12.54,17.29,17.29,0,0,1,5.29-12.65,17.52,17.52,0,0,1,12.88-5.29,16.88,16.88,0,0,1,12.54,5.29,17.45,17.45,0,0,1,5.17,12.65,17.65,17.65,0,0,1-17.71,17.71A17.73,17.73,0,0,1,1296,188.26Z" transform="translate(-17.48 -45.77)"/></g></g></svg>